<svg version="1.1" viewBox="0.0 0.0 960.0 720.0" fill="none" stroke="none" stroke-linecap="square" stroke-miterlimit="10" xmlns:xlink="http://www.w3.org/1999/xlink" xmlns="http://www.w3.org/2000/svg"><clipPath id="p.0"><path d="m0 0l960.0 0l0 720.0l-960.0 0l0 -720.0z" clip-rule="nonzero"/></clipPath><g clip-path="url(#p.0)"><path fill="#000000" fill-opacity="0.0" d="m0 0l960.0 0l0 720.0l-960.0 0z" fill-rule="evenodd"/><path fill="#000000" d="m26.418848 620.2276c0.4886055 4.883972 196.83517 -39.563965 282.79724 -109.89694c85.9621 -70.33298 233.46384 -307.21704 232.97525 -312.101c-0.48864746 -4.883957 -149.9448 212.46426 -235.90689 282.79724c-85.96207 70.33298 -280.35422 134.31674 -279.8656 139.20071z" fill-rule="evenodd"/><path stroke="#000000" stroke-width="1.0" stroke-linejoin="round" stroke-linecap="butt" d="m26.418848 620.2276c0.4886055 4.883972 196.83517 -39.563965 282.79724 -109.89694c85.9621 -70.33298 233.46384 -307.21704 232.97525 -312.101c-0.48864746 -4.883957 -149.9448 212.46426 -235.90689 282.79724c-85.96207 70.33298 -280.35422 134.31674 -279.8656 139.20071z" fill-rule="evenodd"/><path fill="#000000" d="m398.59305 428.27094c0.97720337 -4.395355 122.34982 8.549286 158.24844 42.494507c35.89862 33.94525 58.120483 156.78162 57.14325 161.17694c-0.97717285 4.3953857 -27.10791 -100.85956 -63.00653 -134.80481c-35.89862 -33.94522 -153.36237 -64.47128 -152.38516 -68.86664z" fill-rule="evenodd"/><path stroke="#000000" stroke-width="1.0" stroke-linejoin="round" stroke-linecap="butt" d="m398.59305 428.27094c0.97720337 -4.395355 122.34982 8.549286 158.24844 42.494507c35.89862 33.94525 58.120483 156.78162 57.14325 161.17694c-0.97717285 4.3953857 -27.10791 -100.85956 -63.00653 -134.80481c-35.89862 -33.94522 -153.36237 -64.47128 -152.38516 -68.86664z" fill-rule="evenodd"/><path fill="#000000" d="m531.791 121.75845l0 0c10.619507 -31.006218 39.70337 -49.12635 64.96063 -40.472443l0 0c12.128967 4.155754 21.73529 14.056221 26.70575 27.5234c4.970459 13.467178 4.897888 29.397911 -0.20178223 44.28762l0 0c-10.619568 31.006226 -39.70343 49.126358 -64.96063 40.472443l0 0c-25.257263 -8.6539 -37.123474 -40.804794 -26.503967 -71.81102z" fill-rule="evenodd"/><path stroke="#000000" stroke-width="1.0" stroke-linejoin="round" stroke-linecap="butt" d="m531.791 121.75845l0 0c10.619507 -31.006218 39.70337 -49.12635 64.96063 -40.472443l0 0c12.128967 4.155754 21.73529 14.056221 26.70575 27.5234c4.970459 13.467178 4.897888 29.397911 -0.20178223 44.28762l0 0c-10.619568 31.006226 -39.70343 49.126358 -64.96063 40.472443l0 0c-25.257263 -8.6539 -37.123474 -40.804794 -26.503967 -71.81102z" fill-rule="evenodd"/><path fill="#000000" d="m477.97095 236.74179c-2.8986511 1.639328 236.10101 307.3381 308.02966 366.3876c71.92859 59.0495 109.37372 -9.648132 123.54205 -12.090576c14.168335 -2.4423828 -29.147217 -4.4125366 -38.53192 -2.5640259c-9.384766 1.8485718 -10.072632 11.210022 -17.77655 13.655273c-7.7039185 2.4451904 -20.140198 2.4888306 -28.447144 1.0160522c-8.307007 -1.4727173 36.40802 51.214783 -21.394653 -9.8526c-57.802734 -61.067444 -322.52283 -358.19104 -325.42145 -356.55173z" fill-rule="evenodd"/><path stroke="#000000" stroke-width="1.0" stroke-linejoin="round" stroke-linecap="butt" d="m477.97095 236.74179c-2.8986511 1.639328 236.10101 307.3381 308.02966 366.3876c71.92859 59.0495 109.37372 -9.648132 123.54205 -12.090576c14.168335 -2.4423828 -29.147217 -4.4125366 -38.53192 -2.5640259c-9.384766 1.8485718 -10.072632 11.210022 -17.77655 13.655273c-7.7039185 2.4451904 -20.140198 2.4888306 -28.447144 1.0160522c-8.307007 -1.4727173 36.40802 51.214783 -21.394653 -9.8526c-57.802734 -61.067444 -322.52283 -358.19104 -325.42145 -356.55173z" fill-rule="evenodd"/><path fill="#000000" d="m705.3924 462.63895c2.3289795 -1.6407471 -23.084106 -173.25745 -49.016235 -214.10805c-25.93219 -40.850586 -104.24762 -32.63626 -106.57666 -30.995514c-2.3289795 1.6407318 66.67047 -0.010635376 92.6026 40.83995c25.932129 40.850616 60.661255 205.90436 62.990295 204.26361z" fill-rule="evenodd"/><path stroke="#000000" stroke-width="1.0" stroke-linejoin="round" stroke-linecap="butt" d="m705.3924 462.63895c2.3289795 -1.6407471 -23.084106 -173.25745 -49.016235 -214.10805c-25.93219 -40.850586 -104.24762 -32.63626 -106.57666 -30.995514c-2.3289795 1.6407318 66.67047 -0.010635376 92.6026 40.83995c25.932129 40.850616 60.661255 205.90436 62.990295 204.26361z" fill-rule="evenodd"/></g></svg>